<svg xmlns="http://www.w3.org/2000/svg" viewBox="0 0 512 512">
  <defs>
    <linearGradient id="grad" x1="0%" y1="0%" x2="100%" y2="100%">
      <stop offset="0%" style="stop-color:#1976d2;stop-opacity:1" />
      <stop offset="100%" style="stop-color:#1565c0;stop-opacity:1" />
    </linearGradient>
  </defs>
  <rect width="512" height="512" fill="url(#grad)"/>
  <g fill="white">
    <!-- Map marker pin -->
    <path d="M256 80c-48.6 0-88 39.4-88 88s39.4 88 88 88 88-39.4 88-88-39.4-88-88-88zm0 144c-30.9 0-56-25.1-56-56s25.1-56 56-56 56 25.1 56 56-25.1 56-56 56z"/>
    <!-- Crosshair lines -->
    <line x1="256" y1="40" x2="256" y2="100" stroke="white" stroke-width="8" stroke-linecap="round"/>
    <line x1="256" y1="300" x2="256" y2="360" stroke="white" stroke-width="8" stroke-linecap="round"/>
    <line x1="160" y1="220" x2="220" y2="220" stroke="white" stroke-width="8" stroke-linecap="round"/>
    <line x1="360" y1="220" x2="420" y2="220" stroke="white" stroke-width="8" stroke-linecap="round"/>
    <!-- Data points below -->
    <circle cx="180" cy="380" r="12" fill="white"/>
    <circle cx="256" cy="420" r="12" fill="white"/>
    <circle cx="332" cy="390" r="12" fill="white"/>
    <!-- Connecting lines -->
    <polyline points="180,380 256,420 332,390" stroke="white" stroke-width="6" fill="none" stroke-linecap="round" stroke-linejoin="round"/>
  </g>
</svg>
